<svg xmlns="http://www.w3.org/2000/svg" xmlns:xlink="http://www.w3.org/1999/xlink" width="500" zoomAndPan="magnify" viewBox="0 0 375 374.999991" height="500" preserveAspectRatio="xMidYMid meet" version="1.0"><defs><clipPath id="bfc7822d77"><path d="M 147 234 L 154 234 L 154 241.226562 L 147 241.226562 Z M 147 234 " clip-rule="nonzero"/></clipPath><clipPath id="b4f08ce8ce"><path d="M 195 135 L 271.941406 135 L 271.941406 203 L 195 203 Z M 195 135 " clip-rule="nonzero"/></clipPath><clipPath id="f212c6aea8"><path d="M 104.691406 152 L 144 152 L 144 186 L 104.691406 186 Z M 104.691406 152 " clip-rule="nonzero"/></clipPath><clipPath id="3265510eb9"><path d="M 130 82.226562 L 170 82.226562 L 170 117 L 130 117 Z M 130 82.226562 " clip-rule="nonzero"/></clipPath><clipPath id="5bc44cd47b"><path d="M 178 117 L 189 117 L 189 228.453125 L 178 228.453125 Z M 178 117 " clip-rule="nonzero"/></clipPath><clipPath id="9958dd68c1"><path d="M 204 94.953125 L 226 94.953125 L 226 145 L 204 145 Z M 204 94.953125 " clip-rule="nonzero"/></clipPath><clipPath id="76966804bb"><path d="M 104.691406 174 L 143 174 L 143 190 L 104.691406 190 Z M 104.691406 174 " clip-rule="nonzero"/></clipPath><clipPath id="72c5292120"><path d="M 239 97 L 270.441406 97 L 270.441406 135 L 239 135 Z M 239 97 " clip-rule="nonzero"/></clipPath><clipPath id="dae38ac6fd"><path d="M 227 156 L 270.441406 156 L 270.441406 174 L 227 174 Z M 227 156 " clip-rule="nonzero"/></clipPath></defs><path fill="#03507c" d="M 150.25 172.320312 C 150 172.320312 149.8125 172.429688 149.6875 172.644531 L 130.894531 205.195312 C 130.769531 205.414062 130.769531 205.628906 130.894531 205.84375 L 149.6875 238.394531 C 149.8125 238.613281 150 238.71875 150.25 238.71875 L 187.839844 238.71875 C 188.085938 238.71875 188.273438 238.613281 188.398438 238.394531 L 207.191406 205.84375 C 207.316406 205.628906 207.316406 205.414062 207.191406 205.195312 L 188.398438 172.644531 C 188.273438 172.429688 188.085938 172.320312 187.839844 172.320312 Z M 150.621094 173.613281 L 187.464844 173.613281 L 205.886719 205.519531 L 187.464844 237.425781 L 150.621094 237.425781 L 132.199219 205.519531 Z M 150.621094 173.613281 " fill-opacity="1" fill-rule="nonzero"/><path fill="#03507c" d="M 191.011719 172.96875 C 191.007812 173.386719 190.929688 173.792969 190.769531 174.179688 C 190.605469 174.570312 190.378906 174.914062 190.082031 175.210938 C 189.785156 175.507812 189.441406 175.738281 189.050781 175.898438 C 188.664062 176.058594 188.257812 176.140625 187.839844 176.140625 C 187.417969 176.140625 187.011719 176.058594 186.625 175.898438 C 186.234375 175.738281 185.894531 175.507812 185.59375 175.210938 C 185.296875 174.914062 185.070312 174.570312 184.90625 174.179688 C 184.746094 173.792969 184.667969 173.386719 184.667969 172.96875 C 184.667969 172.546875 184.746094 172.140625 184.90625 171.753906 C 185.070312 171.363281 185.296875 171.023438 185.59375 170.726562 C 185.894531 170.425781 186.234375 170.199219 186.625 170.039062 C 187.011719 169.875 187.417969 169.796875 187.839844 169.796875 C 188.257812 169.796875 188.664062 169.875 189.050781 170.039062 C 189.441406 170.199219 189.785156 170.425781 190.082031 170.726562 C 190.378906 171.023438 190.605469 171.363281 190.769531 171.753906 C 190.929688 172.140625 191.011719 172.546875 191.011719 172.96875 Z M 191.011719 172.96875 " fill-opacity="1" fill-rule="nonzero"/><g clip-path="url(#bfc7822d77)"><path fill="#03507c" d="M 153.421875 238.074219 C 153.421875 238.496094 153.339844 238.898438 153.179688 239.289062 C 153.019531 239.675781 152.789062 240.019531 152.492188 240.316406 C 152.195312 240.613281 151.851562 240.84375 151.460938 241.003906 C 151.074219 241.164062 150.667969 241.246094 150.25 241.246094 C 149.828125 241.246094 149.421875 241.164062 149.035156 241.003906 C 148.648438 240.84375 148.304688 240.613281 148.007812 240.316406 C 147.707031 240.019531 147.480469 239.675781 147.320312 239.289062 C 147.15625 238.898438 147.078125 238.496094 147.078125 238.074219 C 147.078125 237.652344 147.15625 237.25 147.320312 236.859375 C 147.480469 236.472656 147.707031 236.128906 148.007812 235.832031 C 148.304688 235.535156 148.648438 235.304688 149.035156 235.144531 C 149.425781 234.984375 149.828125 234.902344 150.25 234.902344 C 150.667969 234.902344 151.074219 234.984375 151.460938 235.144531 C 151.851562 235.304688 152.195312 235.535156 152.492188 235.832031 C 152.789062 236.128906 153.019531 236.472656 153.179688 236.859375 C 153.339844 237.25 153.421875 237.652344 153.421875 238.074219 Z M 153.421875 238.074219 " fill-opacity="1" fill-rule="nonzero"/></g><path fill="#03507c" d="M 150.25 98.648438 C 150 98.648438 149.8125 98.753906 149.6875 98.96875 L 130.894531 131.523438 C 130.769531 131.738281 130.769531 131.953125 130.894531 132.167969 L 149.6875 164.722656 C 149.8125 164.9375 150 165.046875 150.25 165.046875 L 187.839844 165.046875 C 188.085938 165.042969 188.273438 164.9375 188.398438 164.722656 L 207.191406 132.167969 C 207.316406 131.953125 207.316406 131.738281 207.191406 131.523438 L 188.398438 98.96875 C 188.273438 98.753906 188.085938 98.648438 187.839844 98.648438 Z M 150.621094 99.9375 L 187.464844 99.9375 L 205.886719 131.847656 L 187.464844 163.753906 L 150.621094 163.753906 L 132.199219 131.847656 Z M 150.621094 99.9375 " fill-opacity="1" fill-rule="nonzero"/><path fill="#03507c" d="M 209.238281 131.847656 C 209.238281 132.265625 209.15625 132.671875 208.996094 133.058594 C 208.835938 133.449219 208.605469 133.792969 208.308594 134.089844 C 208.011719 134.386719 207.667969 134.617188 207.28125 134.777344 C 206.890625 134.9375 206.488281 135.019531 206.066406 135.019531 C 205.644531 135.019531 205.242188 134.9375 204.851562 134.777344 C 204.464844 134.617188 204.121094 134.386719 203.824219 134.089844 C 203.527344 133.792969 203.296875 133.449219 203.136719 133.058594 C 202.976562 132.671875 202.894531 132.265625 202.894531 131.847656 C 202.894531 131.425781 202.976562 131.019531 203.136719 130.632812 C 203.296875 130.242188 203.527344 129.902344 203.824219 129.605469 C 204.121094 129.304688 204.464844 129.078125 204.851562 128.917969 C 205.242188 128.753906 205.644531 128.675781 206.066406 128.675781 C 206.488281 128.675781 206.890625 128.753906 207.28125 128.917969 C 207.667969 129.078125 208.011719 129.304688 208.308594 129.605469 C 208.605469 129.902344 208.835938 130.242188 208.996094 130.632812 C 209.15625 131.019531 209.238281 131.425781 209.238281 131.847656 Z M 209.238281 131.847656 " fill-opacity="1" fill-rule="nonzero"/><path fill="#03507c" d="M 153.421875 164.398438 C 153.421875 164.820312 153.339844 165.222656 153.179688 165.613281 C 153.019531 166 152.789062 166.34375 152.492188 166.640625 C 152.195312 166.941406 151.851562 167.167969 151.460938 167.328125 C 151.074219 167.492188 150.667969 167.570312 150.25 167.570312 C 149.828125 167.570312 149.421875 167.492188 149.035156 167.328125 C 148.648438 167.167969 148.304688 166.941406 148.007812 166.640625 C 147.707031 166.34375 147.480469 166 147.320312 165.613281 C 147.15625 165.222656 147.078125 164.820312 147.078125 164.398438 C 147.078125 163.980469 147.15625 163.574219 147.320312 163.1875 C 147.480469 162.796875 147.707031 162.453125 148.007812 162.15625 C 148.304688 161.859375 148.648438 161.628906 149.035156 161.46875 C 149.421875 161.308594 149.828125 161.226562 150.25 161.226562 C 150.667969 161.226562 151.074219 161.308594 151.464844 161.46875 C 151.851562 161.628906 152.195312 161.859375 152.492188 162.15625 C 152.789062 162.453125 153.019531 162.796875 153.179688 163.1875 C 153.339844 163.574219 153.421875 163.980469 153.421875 164.398438 Z M 153.421875 164.398438 " fill-opacity="1" fill-rule="nonzero"/><g clip-path="url(#b4f08ce8ce)"><path fill="#03507c" d="M 214.542969 135.84375 C 214.296875 135.84375 214.109375 135.953125 213.984375 136.167969 L 195.191406 168.71875 C 195.066406 168.9375 195.066406 169.152344 195.191406 169.367188 L 213.984375 201.917969 C 214.109375 202.136719 214.296875 202.242188 214.542969 202.242188 L 252.132812 202.242188 C 252.382812 202.242188 252.570312 202.132812 252.691406 201.917969 L 271.488281 169.367188 C 271.613281 169.152344 271.613281 168.9375 271.488281 168.71875 L 252.691406 136.167969 C 252.570312 135.953125 252.382812 135.84375 252.132812 135.84375 Z M 214.917969 137.136719 L 251.761719 137.136719 L 270.179688 169.042969 L 251.761719 200.949219 L 214.917969 200.949219 L 196.496094 169.042969 Z M 214.917969 137.136719 " fill-opacity="1" fill-rule="nonzero"/></g><path fill="#03507c" d="M 255.304688 136.492188 C 255.304688 136.910156 255.226562 137.316406 255.0625 137.703125 C 254.902344 138.09375 254.671875 138.4375 254.375 138.734375 C 254.078125 139.03125 253.734375 139.261719 253.347656 139.421875 C 252.957031 139.582031 252.554688 139.664062 252.132812 139.664062 C 251.714844 139.664062 251.308594 139.582031 250.917969 139.421875 C 250.53125 139.261719 250.1875 139.03125 249.890625 138.734375 C 249.59375 138.4375 249.363281 138.09375 249.203125 137.703125 C 249.042969 137.316406 248.960938 136.910156 248.960938 136.492188 C 248.960938 136.070312 249.042969 135.664062 249.203125 135.277344 C 249.363281 134.886719 249.59375 134.546875 249.890625 134.246094 C 250.1875 133.949219 250.53125 133.722656 250.921875 133.558594 C 251.308594 133.398438 251.714844 133.320312 252.132812 133.320312 C 252.554688 133.320312 252.957031 133.398438 253.347656 133.558594 C 253.734375 133.722656 254.078125 133.949219 254.375 134.246094 C 254.675781 134.546875 254.902344 134.886719 255.0625 135.277344 C 255.226562 135.664062 255.304688 136.070312 255.304688 136.492188 Z M 255.304688 136.492188 " fill-opacity="1" fill-rule="nonzero"/><path fill="#03507c" d="M 255.304688 201.597656 C 255.304688 202.015625 255.226562 202.421875 255.0625 202.808594 C 254.902344 203.199219 254.671875 203.542969 254.375 203.839844 C 254.078125 204.136719 253.734375 204.367188 253.347656 204.527344 C 252.957031 204.6875 252.554688 204.769531 252.132812 204.769531 C 251.714844 204.769531 251.308594 204.6875 250.917969 204.527344 C 250.53125 204.367188 250.1875 204.136719 249.890625 203.839844 C 249.59375 203.542969 249.363281 203.199219 249.203125 202.808594 C 249.042969 202.421875 248.960938 202.015625 248.960938 201.597656 C 248.960938 201.175781 249.042969 200.773438 249.203125 200.382812 C 249.363281 199.996094 249.59375 199.652344 249.890625 199.355469 C 250.1875 199.058594 250.53125 198.828125 250.921875 198.667969 C 251.308594 198.503906 251.714844 198.425781 252.132812 198.425781 C 252.554688 198.425781 252.957031 198.503906 253.347656 198.667969 C 253.734375 198.828125 254.078125 199.054688 254.375 199.355469 C 254.671875 199.652344 254.902344 199.996094 255.0625 200.382812 C 255.226562 200.773438 255.304688 201.175781 255.304688 201.597656 Z M 255.304688 201.597656 " fill-opacity="1" fill-rule="nonzero"/><path fill="#03507c" d="M 199.335938 184.714844 C 199.210938 184.714844 199.113281 184.769531 199.050781 184.878906 L 189.496094 201.429688 C 189.433594 201.539062 189.433594 201.648438 189.496094 201.757812 L 199.050781 218.308594 C 199.113281 218.417969 199.210938 218.472656 199.335938 218.472656 L 218.449219 218.472656 C 218.574219 218.472656 218.667969 218.417969 218.734375 218.308594 L 228.289062 201.757812 C 228.351562 201.648438 228.351562 201.539062 228.289062 201.429688 L 218.734375 184.878906 C 218.667969 184.769531 218.574219 184.714844 218.449219 184.714844 Z M 199.527344 185.371094 L 218.257812 185.371094 L 227.625 201.59375 L 218.257812 217.816406 L 199.527344 217.816406 L 190.160156 201.59375 Z M 199.527344 185.371094 " fill-opacity="1" fill-rule="nonzero"/><path fill="#03507c" d="M 212.773438 96.8125 C 212.648438 96.8125 212.550781 96.867188 212.488281 96.980469 L 202.933594 113.53125 C 202.871094 113.640625 202.871094 113.75 202.933594 113.859375 L 212.488281 130.410156 C 212.550781 130.519531 212.648438 130.574219 212.773438 130.574219 L 231.886719 130.574219 C 232.011719 130.574219 232.105469 130.519531 232.171875 130.410156 L 241.726562 113.859375 C 241.789062 113.75 241.789062 113.640625 241.726562 113.53125 L 232.171875 96.980469 C 232.105469 96.871094 232.011719 96.8125 231.886719 96.8125 Z M 212.964844 97.472656 L 231.695312 97.472656 L 241.0625 113.695312 L 231.695312 129.917969 L 212.964844 129.917969 L 203.597656 113.695312 Z M 212.964844 97.472656 " fill-opacity="1" fill-rule="nonzero"/><g clip-path="url(#f212c6aea8)"><path fill="#03507c" d="M 114.578125 152.160156 C 114.449219 152.160156 114.355469 152.214844 114.292969 152.324219 L 104.734375 168.878906 C 104.671875 168.988281 104.671875 169.097656 104.734375 169.207031 L 114.292969 185.757812 C 114.355469 185.867188 114.449219 185.921875 114.578125 185.921875 L 133.6875 185.921875 C 133.816406 185.921875 133.910156 185.867188 133.972656 185.757812 L 143.527344 169.207031 C 143.59375 169.097656 143.59375 168.988281 143.527344 168.878906 L 133.972656 152.324219 C 133.910156 152.214844 133.816406 152.160156 133.6875 152.160156 Z M 114.765625 152.816406 L 133.5 152.816406 L 142.863281 169.042969 L 133.5 185.265625 L 114.765625 185.265625 L 105.398438 169.042969 Z M 114.765625 152.816406 " fill-opacity="1" fill-rule="nonzero"/></g><path fill="#03507c" d="M 110.199219 144.78125 C 110.144531 144.78125 110.101562 144.804688 110.070312 144.855469 L 105.710938 152.410156 C 105.679688 152.460938 105.679688 152.511719 105.710938 152.558594 L 110.070312 160.113281 C 110.101562 160.164062 110.144531 160.1875 110.199219 160.1875 L 118.921875 160.1875 C 118.980469 160.1875 119.023438 160.164062 119.054688 160.113281 L 123.414062 152.558594 C 123.441406 152.511719 123.441406 152.460938 123.414062 152.410156 L 119.054688 144.855469 C 119.023438 144.804688 118.980469 144.78125 118.921875 144.78125 Z M 110.289062 145.082031 L 118.835938 145.082031 L 123.109375 152.484375 L 118.835938 159.890625 L 110.289062 159.890625 L 106.011719 152.484375 Z M 110.289062 145.082031 " fill-opacity="1" fill-rule="nonzero"/><g clip-path="url(#3265510eb9)"><path fill="#03507c" d="M 140.371094 82.410156 C 140.242188 82.410156 140.148438 82.464844 140.085938 82.574219 L 130.53125 99.125 C 130.464844 99.238281 130.464844 99.347656 130.53125 99.457031 L 140.085938 116.007812 C 140.148438 116.117188 140.242188 116.171875 140.371094 116.171875 L 159.480469 116.171875 C 159.609375 116.171875 159.703125 116.117188 159.765625 116.007812 L 169.324219 99.457031 C 169.386719 99.347656 169.386719 99.238281 169.324219 99.125 L 159.765625 82.574219 C 159.703125 82.464844 159.609375 82.410156 159.480469 82.410156 Z M 140.558594 83.066406 L 159.292969 83.066406 L 168.660156 99.292969 L 159.292969 115.515625 L 140.558594 115.515625 L 131.191406 99.292969 Z M 140.558594 83.066406 " fill-opacity="1" fill-rule="nonzero"/></g><path fill="#03507c" d="M 176.203125 208.859375 C 176.148438 208.859375 176.101562 208.882812 176.074219 208.933594 L 171.714844 216.488281 C 171.683594 216.539062 171.683594 216.585938 171.714844 216.636719 L 176.074219 224.191406 C 176.101562 224.242188 176.148438 224.265625 176.203125 224.265625 L 184.925781 224.265625 C 184.984375 224.265625 185.027344 224.242188 185.054688 224.191406 L 189.417969 216.636719 C 189.445312 216.585938 189.445312 216.539062 189.417969 216.488281 L 185.054688 208.933594 C 185.027344 208.882812 184.984375 208.859375 184.925781 208.859375 Z M 176.289062 209.160156 L 184.839844 209.160156 L 189.113281 216.5625 L 184.839844 223.964844 L 176.289062 223.964844 L 172.015625 216.5625 Z M 176.289062 209.160156 " fill-opacity="1" fill-rule="nonzero"/><path fill="#03507c" d="M 237.832031 179.796875 C 237.773438 179.796875 237.730469 179.820312 237.703125 179.871094 L 233.339844 187.425781 C 233.3125 187.476562 233.3125 187.527344 233.339844 187.574219 L 237.703125 195.128906 C 237.730469 195.179688 237.773438 195.203125 237.832031 195.203125 L 246.554688 195.203125 C 246.613281 195.203125 246.65625 195.179688 246.683594 195.128906 L 251.042969 187.574219 C 251.074219 187.527344 251.074219 187.476562 251.042969 187.425781 L 246.683594 179.871094 C 246.65625 179.820312 246.613281 179.796875 246.554688 179.796875 Z M 237.917969 180.097656 L 246.46875 180.097656 L 250.742188 187.5 L 246.46875 194.90625 L 237.917969 194.90625 L 233.644531 187.5 Z M 237.917969 180.097656 " fill-opacity="1" fill-rule="nonzero"/><g clip-path="url(#5bc44cd47b)"><path fill="#03507c" d="M 178.261719 117.421875 L 188.246094 117.421875 L 188.246094 228.453125 L 178.261719 228.453125 Z M 178.261719 117.421875 " fill-opacity="1" fill-rule="nonzero"/></g><path fill="#03507c" d="M 148.175781 175.152344 L 153.871094 166.976562 L 184.863281 188.449219 L 179.167969 196.625 Z M 148.175781 175.152344 " fill-opacity="1" fill-rule="nonzero"/><path fill="#03507c" d="M 182.042969 165.804688 L 232.769531 139.601562 L 237.359375 148.445312 L 186.632812 174.648438 Z M 182.042969 165.804688 " fill-opacity="1" fill-rule="nonzero"/><path fill="#0097af" d="M 253.886719 205.152344 C 253.886719 205.152344 237.6875 173.40625 198.960938 178.464844 C 198.960938 178.464844 203.664062 215.371094 253.886719 205.152344 Z M 253.886719 205.152344 " fill-opacity="1" fill-rule="nonzero"/><path fill="#00cbbe" d="M 167.339844 200.878906 C 167.339844 200.878906 149.414062 222.355469 120.71875 211.722656 C 120.71875 211.722656 130.753906 184.355469 167.339844 200.878906 Z M 167.339844 200.878906 " fill-opacity="1" fill-rule="nonzero"/><g clip-path="url(#9958dd68c1)"><path fill="#00cbbe" d="M 208.734375 144.007812 C 208.734375 144.007812 195.613281 117.941406 217.828125 94.953125 C 217.773438 94.953125 239.882812 115.960938 208.734375 144.007812 Z M 208.734375 144.007812 " fill-opacity="1" fill-rule="nonzero"/></g><path fill="#00cbbe" d="M 106.296875 137.4375 C 106.296875 137.4375 131.800781 137.28125 141.207031 163.191406 C 141.207031 163.191406 116.171875 172.15625 106.296875 137.4375 Z M 106.296875 137.4375 " fill-opacity="1" fill-rule="nonzero"/><path fill="#0097af" d="M 166.242188 159.800781 C 166.242188 159.800781 134.570312 145.464844 137.914062 107.671875 C 137.914062 107.671875 174.082031 110.644531 166.242188 159.800781 Z M 166.242188 159.800781 " fill-opacity="1" fill-rule="nonzero"/><g clip-path="url(#76966804bb)"><path fill="#0097af" d="M 142.722656 185.449219 C 142.722656 185.449219 123.488281 196.761719 104.78125 181.070312 C 104.78125 181.015625 119.726562 163.136719 142.722656 185.449219 Z M 142.722656 185.449219 " fill-opacity="1" fill-rule="nonzero"/></g><g clip-path="url(#72c5292120)"><path fill="#0097af" d="M 270.351562 97.613281 C 270.351562 97.613281 269.464844 124.980469 240.824219 134.050781 C 240.824219 134.050781 232.042969 106.839844 270.351562 97.613281 Z M 270.351562 97.613281 " fill-opacity="1" fill-rule="nonzero"/></g><g clip-path="url(#dae38ac6fd)"><path fill="#00cbbe" d="M 270.351562 169.183594 C 270.351562 169.183594 248.242188 181.644531 227.339844 163.449219 C 227.339844 163.398438 244.691406 143.433594 270.351562 169.183594 Z M 270.351562 169.183594 " fill-opacity="1" fill-rule="nonzero"/></g></svg>