<svg xmlns="http://www.w3.org/2000/svg" xmlns:xlink="http://www.w3.org/1999/xlink" width="500" zoomAndPan="magnify" viewBox="0 0 375 374.999991" height="500" preserveAspectRatio="xMidYMid meet" version="1.0"><defs><g/></defs><g fill="#e1e1e1" fill-opacity="1"><g transform="translate(144.432812, 267.133319)"><g><path d="M 126.5625 -55.734375 C 126.5625 -37.523438 121.664062 -23.3125 111.875 -13.09375 C 102.082031 -2.882812 88.238281 2.21875 70.34375 2.21875 C 58.28125 2.21875 47.40625 -0.316406 37.71875 -5.390625 C 28.03125 -10.472656 20.507812 -17.40625 15.15625 -26.1875 C 9.8125 -34.976562 7.140625 -44.800781 7.140625 -55.65625 C 7.140625 -66.507812 9.785156 -76.328125 15.078125 -85.109375 C 20.378906 -93.898438 27.6875 -100.804688 37 -105.828125 C 46.3125 -110.859375 56.6875 -113.375 68.125 -113.375 C 75.320312 -113.375 82.648438 -112.394531 90.109375 -110.4375 C 97.578125 -108.476562 103.800781 -105.859375 108.78125 -102.578125 L 111.953125 -80.1875 L 110.515625 -80.1875 C 108.296875 -89.082031 103.160156 -96.039062 95.109375 -101.0625 C 87.066406 -106.09375 78.125 -108.609375 68.28125 -108.609375 C 54.195312 -108.609375 42.472656 -103.609375 33.109375 -93.609375 C 23.742188 -83.609375 19.0625 -71.035156 19.0625 -55.890625 C 19.0625 -40.753906 23.898438 -28.078125 33.578125 -17.859375 C 43.265625 -7.648438 55.941406 -2.546875 71.609375 -2.546875 C 87.285156 -2.546875 100.070312 -7.625 109.96875 -17.78125 C 119.863281 -27.945312 124.8125 -41.867188 124.8125 -59.546875 L 126.40625 -59.546875 C 126.507812 -58.273438 126.5625 -57.003906 126.5625 -55.734375 Z M 126.5625 -55.734375 "/></g></g></g><g fill="#e1e1e1" fill-opacity="1"><g transform="translate(93.307998, 235.88332)"><g><path d="M 153.875 27.625 C 140.425781 27.625 129.414062 23.335938 120.84375 14.765625 C 114.488281 8.410156 110.304688 0.421875 108.296875 -9.203125 C 98.242188 -1.585938 85.910156 2.21875 71.296875 2.21875 C 59.753906 2.21875 49.242188 -0.289062 39.765625 -5.3125 C 30.296875 -10.34375 22.890625 -17.25 17.546875 -26.03125 C 12.203125 -34.820312 9.53125 -44.722656 9.53125 -55.734375 C 9.53125 -66.742188 12.203125 -76.664062 17.546875 -85.5 C 22.890625 -94.34375 30.269531 -101.195312 39.6875 -106.0625 C 49.113281 -110.9375 59.648438 -113.375 71.296875 -113.375 C 85.910156 -113.375 98.773438 -109.773438 109.890625 -102.578125 L 113.0625 -80.1875 L 111.640625 -80.1875 C 108.460938 -92.46875 101.257812 -100.832031 90.03125 -105.28125 C 84.53125 -107.5 78.285156 -108.609375 71.296875 -108.609375 C 57.003906 -108.609375 45.117188 -103.632812 35.640625 -93.6875 C 26.171875 -83.738281 21.4375 -71.113281 21.4375 -55.8125 C 21.4375 -40.519531 26.195312 -27.84375 35.71875 -17.78125 C 45.25 -7.726562 57.109375 -2.648438 71.296875 -2.546875 C 78.179688 -2.546875 84.742188 -3.757812 90.984375 -6.1875 C 97.234375 -8.625 102.582031 -12.015625 107.03125 -16.359375 L 107.03125 -44.46875 C 107.03125 -46.789062 106.34375 -48.5625 104.96875 -49.78125 C 103.59375 -51 101.632812 -51.609375 99.09375 -51.609375 L 96.546875 -51.609375 L 96.546875 -53.203125 L 127.671875 -53.203125 L 127.671875 -51.609375 L 125.296875 -51.609375 C 122.648438 -51.609375 120.632812 -51 119.25 -49.78125 C 117.875 -48.5625 117.238281 -46.789062 117.34375 -44.46875 L 117.34375 -20.015625 C 117.976562 -3.285156 123.429688 8.675781 133.703125 15.875 C 140.898438 20.957031 150.21875 23.5 161.65625 23.5 C 166.414062 23.5 171.601562 23.023438 177.21875 22.078125 L 177.375 23.65625 C 168.90625 26.300781 161.070312 27.625 153.875 27.625 Z M 153.875 27.625 "/></g></g></g></svg>